<?xml version="1.0" encoding="utf-8"?>
<!-- Generator: Adobe Illustrator 22.0.1, SVG Export Plug-In . SVG Version: 6.00 Build 0)  -->
<svg version="1.1" id="Layer_1" xmlns="http://www.w3.org/2000/svg" xmlns:xlink="http://www.w3.org/1999/xlink" x="0px" y="0px"
	 viewBox="0 0 180 180" style="enable-background:new 0 0 180 180;" xml:space="preserve">
<style type="text/css">
	.st0{display:none;}
	.st1{display:inline;fill:#1B1D1D;}
	.st2{fill:#1B1D1D;}
	.st3{display:inline;}
</style>
<g class="st0">
	<path class="st1" d="M91.8,52.3c-1.8-1.8-4.8-1.8-6.6,0c-1.8,1.8-1.8,4.8,0,6.6l31,31c1.8,1.8,4.8,1.8,6.6,0c1.8-1.8,1.8-4.8,0-6.6
		L91.8,52.3z"/>
	<path class="st1" d="M82.6,64.3c-1.6,8.2-5.6,16-11,22.4l16.9,16.9c6.3-5.4,14-9.5,22.3-11.1l1.2-0.2l-29-29L82.6,64.3z"/>
	<path class="st1" d="M68.5,90.2L57,101.7c-2.7,2.7-2.7,7.1,0,9.9l6.6,6.6c2.7,2.7,7.1,2.7,9.9,0L85,106.6L68.5,90.2z M70.2,108.3
		c-0.9,0.9-2.4,0.9-3.3,0c-0.9-0.9-0.9-2.4,0-3.3l3.3-3.3c0.9-0.9,2.4-0.9,3.3,0c0.9,0.9,0.9,2.4,0,3.3L70.2,108.3z"/>
	<path class="st1" d="M97.9,106.3l-2.4-2.4c-1.3,0.9-2.5,1.8-3.7,2.8l2.8,2.8c0.9,0.9,0.9,2.4,0,3.3l-3.2,3.2l-4.7-4.6l-6.6,6.6
		l10.6,10.2c1.8,1.8,4.8,1.8,6.6,0c1.8-1.8,1.8-4.8,0-6.6l-2.5-2.4l3.2-3.2C100.6,113.5,100.6,109.1,97.9,106.3z"/>
	<path class="st1" d="M101.8,52.6v4.7c0,1.3,1,2.3,2.3,2.3c1.3,0,2.3-1,2.3-2.3v-4.7c0-1.3-1-2.3-2.3-2.3
		C102.8,50.3,101.8,51.3,101.8,52.6z"/>
	<path class="st1" d="M122.7,68.9h-4.7c-1.3,0-2.3,1-2.3,2.3c0,1.3,1,2.3,2.3,2.3h4.7c1.3,0,2.3-1,2.3-2.3
		C125.1,69.9,124,68.9,122.7,68.9z"/>
	<path class="st1" d="M115.1,63.5l4.7-4.7c0.9-0.9,0.9-2.4,0-3.3s-2.4-0.9-3.3,0l-4.7,4.7c-0.9,0.9-0.9,2.4,0,3.3
		C112.7,64.5,114.2,64.5,115.1,63.5z"/>
</g>
<g>
	<path class="st2" d="M98.2,116.8H81.8c-3.4,0-6.2,2.8-6.2,6.2v2.2h28.8V123C104.4,119.5,101.6,116.8,98.2,116.8z"/>
	<path class="st2" d="M67.5,84.2c0.6-8,5.3-15,12.2-18.6V59H66.8c-0.9-2.4-3.1-4.1-5.8-4.1c-3.4,0-6.2,2.8-6.2,6.2s2.8,6.2,6.2,6.2
		c2.7,0,4.9-1.7,5.8-4.1h9c-7.2,4.5-11.9,12.3-12.5,21.1c-2.4,0.8-4.2,3.1-4.2,5.8c0,3.4,2.8,6.2,6.2,6.2c3.4,0,6.2-2.8,6.2-6.2
		C71.5,87.4,69.8,85.1,67.5,84.2z"/>
	<path class="st2" d="M119,67.2c3.4,0,6.2-2.8,6.2-6.2s-2.8-6.2-6.2-6.2c-2.7,0-4.9,1.7-5.8,4.1h-12.9v6.7
		c6.9,3.5,11.7,10.5,12.2,18.6c-2.3,0.9-4,3.1-4,5.8c0,3.4,2.8,6.2,6.2,6.2s6.2-2.8,6.2-6.2c0-2.7-1.8-5-4.2-5.8
		c-0.6-8.8-5.3-16.6-12.5-21.1h9C114,65.5,116.3,67.2,119,67.2z"/>
	<path class="st2" d="M85.9,67.2h8.2c1.1,0,2.1-0.9,2.1-2.1c0-4.1,0-4,0-8.2c0-1.1-0.9-2.1-2.1-2.1h-8.2c-1.1,0-2.1,0.9-2.1,2.1
		c0,3,0,5.1,0,8.2C83.8,66.3,84.7,67.2,85.9,67.2z"/>
	<path class="st2" d="M91.8,72.5c-0.7-1.3-2.8-1.3-3.6,0l-16.5,28.8c-0.4,0.7-0.4,1.5,0.1,2.2l6.1,9.2h10V104
		c-2.4-0.9-4.1-3.1-4.1-5.8c0-3.4,2.8-6.2,6.2-6.2s6.2,2.8,6.2,6.2c0,2.7-1.7,4.9-4.1,5.8v8.6h10l6.1-9.2c0.4-0.6,0.5-1.5,0.1-2.2
		L91.8,72.5z"/>
	<path class="st2" d="M92.1,98.2c0-1.1-0.9-2.1-2.1-2.1s-2.1,0.9-2.1,2.1c0,1.1,0.9,2.1,2.1,2.1S92.1,99.4,92.1,98.2z"/>
</g>
<g class="st0">
	<path class="st1" d="M121.7,59.7H58.3c-1.9,0-3.4,1.5-3.4,3.4v39.8c0,1.9,1.5,3.4,3.4,3.4H82v7.7h-9.2c-1.7,0-3.1,1.4-3.1,3.1
		c0,1.7,1.4,3.1,3.1,3.1h34.5c1.7,0,3.1-1.4,3.1-3.1c0-1.7-1.4-3.1-3.1-3.1H98v-7.7h23.7c1.9,0,3.4-1.5,3.4-3.4V63.1
		C125.1,61.2,123.6,59.7,121.7,59.7L121.7,59.7z M120,101.2H60V64.8H120V101.2z M120,101.2"/>
	<path class="st1" d="M71,84.9l10.7,5c0.3,0.1,0.6,0.2,0.9,0.2c0.4,0,0.8-0.1,1.1-0.3c0.6-0.4,1-1,1-1.8V88c0-0.8-0.5-1.6-1.2-1.9
		L76.7,83l6.7-3.1c0.7-0.3,1.2-1.1,1.2-1.9v-0.1c0-0.7-0.4-1.4-1-1.8c-0.3-0.2-0.7-0.3-1.1-0.3c-0.3,0-0.6,0.1-0.9,0.2L71,81
		c-0.7,0.3-1.2,1.1-1.2,1.9V83C69.7,83.8,70.2,84.6,71,84.9L71,84.9z M71,84.9"/>
	<path class="st1" d="M84.8,95.1c0.4,0.5,1,0.9,1.7,0.9h0.1c0.9,0,1.7-0.6,2-1.4l7.1-21.9c0.2-0.6,0.1-1.3-0.3-1.9
		c-0.4-0.5-1-0.9-1.7-0.9h-0.1c-0.9,0-1.7,0.6-2,1.4l-7.1,21.9C84.2,93.9,84.4,94.5,84.8,95.1L84.8,95.1z M84.8,95.1"/>
	<path class="st1" d="M95.3,77.9c0,0.8,0.5,1.5,1.2,1.9l6.7,3.1l-6.7,3.1c-0.7,0.3-1.2,1.1-1.2,1.9V88c0,0.7,0.4,1.4,1,1.8
		c0.3,0.2,0.7,0.3,1.1,0.3c0.3,0,0.6-0.1,0.9-0.2l10.7-5c0.7-0.3,1.2-1.1,1.2-1.9v-0.1c0-0.8-0.5-1.5-1.2-1.9l-10.7-5
		c-0.3-0.1-0.6-0.2-0.9-0.2c-0.4,0-0.8,0.1-1.1,0.3C95.7,76.5,95.3,77.2,95.3,77.9L95.3,77.9z M95.3,77.9"/>
</g>
<g class="st0">
	<g class="st3">
		<path class="st2" d="M70.6,76.1c-3,0-5.4-2.4-5.4-5.4c0-3,2.4-5.4,5.4-5.4c3,0,5.4,2.4,5.4,5.4C75.9,73.6,73.5,76.1,70.6,76.1z
			 M70.6,69.1c-0.9,0-1.6,0.7-1.6,1.6s0.7,1.6,1.6,1.6s1.6-0.7,1.6-1.6S71.4,69.1,70.6,69.1z"/>
		<g>
			<path class="st2" d="M109.9,69.6c-1,0-1.9-0.8-1.9-1.9c0-1,0.8-1.9,1.9-1.9c1,0,1.9,0.8,1.9,1.9C111.8,68.8,111,69.6,109.9,69.6z
				"/>
			<path class="st2" d="M106,69.6c-1,0-1.9-0.8-1.9-1.9c0-1,0.8-1.9,1.9-1.9s1.9,0.8,1.9,1.9C107.8,68.8,107,69.6,106,69.6z"/>
			<path class="st2" d="M102,69.6c-1,0-1.9-0.8-1.9-1.9c0-1,0.8-1.9,1.9-1.9c1,0,1.9,0.8,1.9,1.9C103.8,68.8,103,69.6,102,69.6z"/>
			<path class="st2" d="M98,69.6c-1,0-1.9-0.8-1.9-1.9c0-1,0.8-1.9,1.9-1.9c1,0,1.9,0.8,1.9,1.9C99.9,68.8,99,69.6,98,69.6z"/>
			<path class="st2" d="M94,69.6c-1,0-1.9-0.8-1.9-1.9c0-1,0.8-1.9,1.9-1.9c1,0,1.9,0.8,1.9,1.9C95.9,68.8,95,69.6,94,69.6z"/>
		</g>
		<g>
			<path class="st2" d="M111.9,74.4c-1,0-1.9-0.8-1.9-1.9c0-1,0.8-1.9,1.9-1.9c1,0,1.9,0.8,1.9,1.9C113.8,73.6,113,74.4,111.9,74.4z
				"/>
			<path class="st2" d="M107.9,74.4c-1,0-1.9-0.8-1.9-1.9c0-1,0.8-1.9,1.9-1.9c1,0,1.9,0.8,1.9,1.9C109.8,73.6,109,74.4,107.9,74.4z
				"/>
			<path class="st2" d="M104,74.4c-1,0-1.9-0.8-1.9-1.9c0-1,0.8-1.9,1.9-1.9c1,0,1.9,0.8,1.9,1.9C105.8,73.6,105,74.4,104,74.4z"/>
			<path class="st2" d="M100,74.4c-1,0-1.9-0.8-1.9-1.9c0-1,0.8-1.9,1.9-1.9s1.9,0.8,1.9,1.9C101.9,73.6,101,74.4,100,74.4z"/>
			<path class="st2" d="M96,74.4c-1,0-1.9-0.8-1.9-1.9c0-1,0.8-1.9,1.9-1.9c1,0,1.9,0.8,1.9,1.9C97.9,73.6,97,74.4,96,74.4z"/>
		</g>
		<path class="st2" d="M70.6,95c-3,0-5.4-2.4-5.4-5.4c0-3,2.4-5.4,5.4-5.4c3,0,5.4,2.4,5.4,5.4C75.9,92.6,73.5,95,70.6,95z M70.6,88
			c-0.9,0-1.6,0.7-1.6,1.6c0,0.9,0.7,1.6,1.6,1.6s1.6-0.7,1.6-1.6C72.2,88.7,71.4,88,70.6,88z"/>
		<path class="st2" d="M70.6,113.9c-3,0-5.4-2.4-5.4-5.4c0-3,2.4-5.4,5.4-5.4c3,0,5.4,2.4,5.4,5.4C75.9,111.5,73.5,113.9,70.6,113.9
			z M70.6,107c-0.9,0-1.6,0.7-1.6,1.6c0,0.9,0.7,1.6,1.6,1.6s1.6-0.7,1.6-1.6C72.2,107.7,71.4,107,70.6,107z"/>
		<path class="st2" d="M101,120.7c-2.9,0-5.9-0.3-8.7-0.8l-27.6,0c-3,0-5.5-2.5-5.5-5.5v-11.7c0-1.3,0.5-2.6,1.4-3.6
			c-0.9-1-1.4-2.3-1.4-3.6V83.8c0-1.3,0.5-2.6,1.4-3.6c-0.9-1-1.4-2.3-1.4-3.6V64.8c0-3,2.5-5.5,5.5-5.5h50.6c3,0,5.5,2.5,5.5,5.5
			v11.7c0,1.9-1,3.7-2.6,4.6c1.3,0.9,2.1,2,2.4,3.2c0.1,0.2,0.1,0.5,0.1,0.7v27.7c0,0.3-0.1,0.5-0.2,0.7
			C119.3,118.4,109.5,120.7,101,120.7z M93.6,116.3c2.3,0.4,4.8,0.6,7.4,0.6c10.1,0,15.8-2.9,16.1-4.4l0-4c-2.1,1.2-5,2.1-8.5,2.6
			l-0.2,0c-0.9,0.2-2,0.3-3.1,0.4l-0.7,0.1c-0.2,0-0.5,0-0.7,0c-0.3,0-0.6,0-0.9,0l-0.5,0c-0.5,0-1,0-1.5,0c-0.5,0-1,0-1.5,0
			l-1.4-0.1l-1.4-0.1c-1.1-0.1-2.1-0.2-3.2-0.4c-3.5-0.5-6.4-1.4-8.5-2.6c0,0-0.1,0-0.1,0l0,4.1l0.1,0.1l0,0c0.6,1,3,2.5,7.9,3.4
			L93.6,116.3z M64.7,101c-0.9,0-1.7,0.8-1.7,1.7v11.7c0,0.9,0.8,1.7,1.7,1.7H83c-0.1-0.1-0.2-0.2-0.4-0.3c-0.1-0.1-0.1-0.2-0.2-0.2
			c-0.1-0.2-0.3-0.3-0.4-0.5c-0.1-0.1-0.2-0.3-0.3-0.4h-0.6V101H64.7z M85.1,104c0.1,0.1,0.1,0.1,0.2,0.2c2,1.9,7.9,3.7,15.7,3.7
			c7.7,0,13.7-1.8,15.6-3.6c0.2-0.2,0.2-0.2,0.3-0.3l0.1-0.2l0.1-0.3c-0.1-0.3,0-0.6,0-0.7l0-3.2c-2.1,1.2-5,2.1-8.5,2.6
			c-1.1,0.2-2.2,0.3-3.3,0.4l-1.4,0.1l-1.5,0.1c-0.5,0-1,0-1.5,0c-0.5,0-1,0-1.5,0l-0.6,0c-0.3,0-0.6,0-0.9,0l-0.6,0l-0.8-0.1
			c-1.1-0.1-2.2-0.2-3.2-0.4c-3.4-0.5-6.2-1.4-8.3-2.4h-0.3l0,3.3c0,0,0,0.2,0,0.4l0.1,0.3L85.1,104z M84.9,93.8c0,0.2,0,0.4,0,0.6
			l0,0.2l0.1,0.2c0,0.1,0.1,0.1,0.1,0.2c0,0,0.1,0.1,0.1,0.2c2,1.9,7.9,3.8,15.7,3.8c7.7,0,13.7-1.8,15.6-3.6
			c0.1-0.2,0.2-0.2,0.3-0.3l0.1-0.1l0.1-0.2l0,0l0-0.2c0-0.2,0-0.5,0-0.6l0-3.2l-0.2,0.1c-0.2,0.1-0.5,0.3-0.8,0.4
			c-0.3,0.2-0.6,0.2-0.8,0.3l-0.2,0.1c-0.3,0.1-0.6,0.2-0.9,0.3c-0.3,0.1-0.6,0.2-0.9,0.3l-0.2,0c-0.4,0.1-0.7,0.2-1,0.3
			c-0.4,0.1-0.7,0.2-1.1,0.3c0,0-0.8,0.2-1.2,0.2l-0.2,0c-0.4,0.1-0.7,0.1-1,0.2l-0.2,0c-0.3,0-0.6,0.1-0.9,0.1l-0.2,0
			c-0.4,0-0.7,0.1-1.1,0.1l-0.2,0l-1.2,0.1l-1.3,0.1c-0.3,0-0.6,0-0.9,0l-1.4,0l-1.3,0c-0.5,0-0.8,0-1.1,0l-1.3-0.1
			c0,0-1.4-0.1-1.5-0.1c-0.3,0-0.7-0.1-1.1-0.1l-0.2,0c-0.3,0-1.2-0.2-1.2-0.2c-0.3-0.1-0.7-0.1-1-0.2c-0.1,0-1.3-0.3-1.3-0.3
			c-0.3-0.1-0.7-0.2-1-0.2c-0.4-0.1-1.2-0.3-1.2-0.3c-0.4-0.1-0.6-0.2-0.9-0.3c-0.3-0.1-0.6-0.2-0.9-0.3l-0.2-0.1
			c-0.3-0.1-0.5-0.2-0.7-0.3c-0.4-0.2-0.6-0.3-0.9-0.4l-0.2-0.1V93.8z M64.7,82c-0.9,0-1.7,0.8-1.7,1.7v11.7c0,0.9,0.8,1.7,1.7,1.7
			h16.5V85.1c0-0.2,0-0.5,0.1-0.7c0.2-0.9,0.7-1.7,1.5-2.4H64.7z M101,81.1c-2.4,0-4.8,0.2-6.9,0.5l-0.4,0.1c-0.5,0.1-1,0.2-1.5,0.3
			c-1.5,0.3-2.9,0.7-4,1.2c-0.4,0.2-0.6,0.3-0.8,0.4c-0.2,0.1-0.3,0.2-0.5,0.3c-1.3,0.7-1.7,1.2-1.8,1.5c-0.1,0.1-0.1,0.1-0.1,0.2
			c0,1.7,6.2,4.6,16,4.6c9.8,0,16.1-2.9,16.1-4.5c0-0.9-2.3-2.5-7.3-3.6c-0.5-0.1-1-0.2-1.5-0.3l-0.3-0.1
			C105.8,81.2,103.4,81.1,101,81.1z M93.5,77.8c2.4-0.4,5-0.6,7.5-0.6s5.1,0.2,7.5,0.6l0.2,0c0.7,0.1,1.4,0.2,2.1,0.4l4.6,0
			c0.9,0,1.7-0.8,1.7-1.7V64.8c0-0.9-0.8-1.7-1.7-1.7H64.7c-0.9,0-1.7,0.8-1.7,1.7v11.7c0,0.9,0.8,1.7,1.7,1.7h26.5l0.1,0
			c0.7-0.2,1.4-0.3,2.1-0.4L93.5,77.8z"/>
	</g>
</g>
<g class="st0">
	<g class="st3">
		<path class="st2" d="M65.9,78.5h-0.2c-2.2,0-3.9,1.8-3.9,3.9v17.2c0,2.2,1.8,3.9,3.9,3.9h0.2c2.2,0,3.9-1.8,3.9-3.9V82.4
			C69.8,80.3,68,78.5,65.9,78.5L65.9,78.5z M65.9,78.5"/>
		<path class="st2" d="M71.7,106.2c0,2,1.6,3.6,3.6,3.6h3.9v9.3c0,2.2,1.8,3.9,3.9,3.9h0.2c2.2,0,3.9-1.8,3.9-3.9v-9.3h5.4v9.3
			c0,2.2,1.8,3.9,3.9,3.9h0.2c2.2,0,3.9-1.8,3.9-3.9v-9.3h3.9c2,0,3.6-1.6,3.6-3.6V79.1H71.7V106.2z M71.7,106.2"/>
		<path class="st2" d="M99.1,62.7l3.1-4.8c0.2-0.3,0.1-0.7-0.2-0.9c-0.3-0.2-0.7-0.1-0.9,0.2l-3.2,4.9c-2.4-1-5.1-1.5-7.9-1.5
			c-2.8,0-5.5,0.6-7.9,1.5l-3.2-4.9c-0.2-0.3-0.6-0.4-0.9-0.2c-0.3,0.2-0.4,0.6-0.2,0.9l3.1,4.8c-5.5,2.7-9.3,7.9-9.3,13.7
			c0,0.4,0,0.7,0.1,1.1h36.7c0-0.4,0.1-0.7,0.1-1.1C108.4,70.5,104.7,65.4,99.1,62.7L99.1,62.7z M81.5,71.2c-1,0-1.8-0.8-1.8-1.8
			c0-1,0.8-1.8,1.8-1.8c1,0,1.8,0.8,1.8,1.8C83.3,70.4,82.5,71.2,81.5,71.2L81.5,71.2z M98.5,71.2c-1,0-1.8-0.8-1.8-1.8
			c0-1,0.8-1.8,1.8-1.8c1,0,1.8,0.8,1.8,1.8C100.3,70.4,99.5,71.2,98.5,71.2L98.5,71.2z M98.5,71.2"/>
		<path class="st2" d="M114.3,78.5h-0.2c-2.2,0-3.9,1.8-3.9,3.9v17.2c0,2.2,1.8,3.9,3.9,3.9h0.2c2.2,0,3.9-1.8,3.9-3.9V82.4
			C118.2,80.3,116.5,78.5,114.3,78.5L114.3,78.5z M114.3,78.5"/>
	</g>
</g>
</svg>
