<?xml version="1.0" encoding="utf-8"?>
<!-- Generator: Adobe Illustrator 22.0.1, SVG Export Plug-In . SVG Version: 6.00 Build 0)  -->
<svg version="1.1" id="Layer_1" xmlns="http://www.w3.org/2000/svg" xmlns:xlink="http://www.w3.org/1999/xlink" x="0px" y="0px"
	 viewBox="0 0 180 180" style="enable-background:new 0 0 180 180;" xml:space="preserve">
<style type="text/css">
	.st0{fill:#1B1D1D;}
</style>
<g>
	<path class="st0" d="M121.7,59.7H58.3c-1.9,0-3.4,1.5-3.4,3.4v39.8c0,1.9,1.5,3.4,3.4,3.4H82v7.7h-9.2c-1.7,0-3.1,1.4-3.1,3.1
		c0,1.7,1.4,3.1,3.1,3.1h34.5c1.7,0,3.1-1.4,3.1-3.1c0-1.7-1.4-3.1-3.1-3.1H98v-7.7h23.7c1.9,0,3.4-1.5,3.4-3.4V63.1
		C125.1,61.2,123.6,59.7,121.7,59.7L121.7,59.7z M120,101.2H60V64.8H120V101.2z M120,101.2"/>
	<path class="st0" d="M71,84.9l10.7,5c0.3,0.1,0.6,0.2,0.9,0.2c0.4,0,0.8-0.1,1.1-0.3c0.6-0.4,1-1,1-1.8V88c0-0.8-0.5-1.6-1.2-1.9
		L76.7,83l6.7-3.1c0.7-0.3,1.2-1.1,1.2-1.9v-0.1c0-0.7-0.4-1.4-1-1.8c-0.3-0.2-0.7-0.3-1.1-0.3c-0.3,0-0.6,0.1-0.9,0.2L71,81
		c-0.7,0.3-1.2,1.1-1.2,1.9V83C69.7,83.8,70.2,84.6,71,84.9L71,84.9z M71,84.9"/>
	<path class="st0" d="M84.8,95.1c0.4,0.5,1,0.9,1.7,0.9h0.1c0.9,0,1.7-0.6,2-1.4l7.1-21.9c0.2-0.6,0.1-1.3-0.3-1.9
		c-0.4-0.5-1-0.9-1.7-0.9h-0.1c-0.9,0-1.7,0.6-2,1.4l-7.1,21.9C84.2,93.9,84.4,94.5,84.8,95.1L84.8,95.1z M84.8,95.1"/>
	<path class="st0" d="M95.3,77.9c0,0.8,0.5,1.5,1.2,1.9l6.7,3.1l-6.7,3.1c-0.7,0.3-1.2,1.1-1.2,1.9V88c0,0.7,0.4,1.4,1,1.8
		c0.3,0.2,0.7,0.3,1.1,0.3c0.3,0,0.6-0.1,0.9-0.2l10.7-5c0.7-0.3,1.2-1.1,1.2-1.9v-0.1c0-0.8-0.5-1.5-1.2-1.9l-10.7-5
		c-0.3-0.1-0.6-0.2-0.9-0.2c-0.4,0-0.8,0.1-1.1,0.3C95.7,76.5,95.3,77.2,95.3,77.9L95.3,77.9z M95.3,77.9"/>
</g>
</svg>
