<?xml version="1.0" encoding="utf-8"?>
<!-- Generator: Adobe Illustrator 22.0.1, SVG Export Plug-In . SVG Version: 6.00 Build 0)  -->
<svg version="1.1" id="Layer_1" xmlns="http://www.w3.org/2000/svg" xmlns:xlink="http://www.w3.org/1999/xlink" x="0px" y="0px"
	 viewBox="0 0 180 180" style="enable-background:new 0 0 180 180;" xml:space="preserve">
<style type="text/css">
	.st0{fill:#1B1D1D;}
</style>
<g>
	<g>
		<path class="st0" d="M70.6,76.1c-3,0-5.4-2.4-5.4-5.4c0-3,2.4-5.4,5.4-5.4c3,0,5.4,2.4,5.4,5.4C75.9,73.6,73.5,76.1,70.6,76.1z
			 M70.6,69.1c-0.9,0-1.6,0.7-1.6,1.6s0.7,1.6,1.6,1.6s1.6-0.7,1.6-1.6S71.4,69.1,70.6,69.1z"/>
		<g>
			<path class="st0" d="M109.9,69.6c-1,0-1.9-0.8-1.9-1.9c0-1,0.8-1.9,1.9-1.9c1,0,1.9,0.8,1.9,1.9C111.8,68.8,111,69.6,109.9,69.6z
				"/>
			<path class="st0" d="M106,69.6c-1,0-1.9-0.8-1.9-1.9c0-1,0.8-1.9,1.9-1.9s1.9,0.8,1.9,1.9C107.8,68.8,107,69.6,106,69.6z"/>
			<path class="st0" d="M102,69.6c-1,0-1.9-0.8-1.9-1.9c0-1,0.8-1.9,1.9-1.9c1,0,1.9,0.8,1.9,1.9C103.8,68.8,103,69.6,102,69.6z"/>
			<path class="st0" d="M98,69.6c-1,0-1.9-0.8-1.9-1.9c0-1,0.8-1.9,1.9-1.9c1,0,1.9,0.8,1.9,1.9C99.9,68.8,99,69.6,98,69.6z"/>
			<path class="st0" d="M94,69.6c-1,0-1.9-0.8-1.9-1.9c0-1,0.8-1.9,1.9-1.9c1,0,1.9,0.8,1.9,1.9C95.9,68.8,95,69.6,94,69.6z"/>
		</g>
		<g>
			<path class="st0" d="M111.9,74.4c-1,0-1.9-0.8-1.9-1.9c0-1,0.8-1.9,1.9-1.9c1,0,1.9,0.8,1.9,1.9C113.8,73.6,113,74.4,111.9,74.4z
				"/>
			<path class="st0" d="M107.9,74.4c-1,0-1.9-0.8-1.9-1.9c0-1,0.8-1.9,1.9-1.9c1,0,1.9,0.8,1.9,1.9C109.8,73.6,109,74.4,107.9,74.4z
				"/>
			<path class="st0" d="M104,74.4c-1,0-1.9-0.8-1.9-1.9c0-1,0.8-1.9,1.9-1.9c1,0,1.9,0.8,1.9,1.9C105.8,73.6,105,74.4,104,74.4z"/>
			<path class="st0" d="M100,74.4c-1,0-1.9-0.8-1.9-1.9c0-1,0.8-1.9,1.9-1.9s1.9,0.8,1.9,1.9C101.9,73.6,101,74.4,100,74.4z"/>
			<path class="st0" d="M96,74.4c-1,0-1.9-0.8-1.9-1.9c0-1,0.8-1.9,1.9-1.9c1,0,1.9,0.8,1.9,1.9C97.9,73.6,97,74.4,96,74.4z"/>
		</g>
		<path class="st0" d="M70.6,95c-3,0-5.4-2.4-5.4-5.4c0-3,2.4-5.4,5.4-5.4c3,0,5.4,2.4,5.4,5.4C75.9,92.6,73.5,95,70.6,95z M70.6,88
			c-0.9,0-1.6,0.7-1.6,1.6c0,0.9,0.7,1.6,1.6,1.6s1.6-0.7,1.6-1.6C72.2,88.7,71.4,88,70.6,88z"/>
		<path class="st0" d="M70.6,113.9c-3,0-5.4-2.4-5.4-5.4c0-3,2.4-5.4,5.4-5.4c3,0,5.4,2.4,5.4,5.4C75.9,111.5,73.5,113.9,70.6,113.9
			z M70.6,107c-0.9,0-1.6,0.7-1.6,1.6c0,0.9,0.7,1.6,1.6,1.6s1.6-0.7,1.6-1.6C72.2,107.7,71.4,107,70.6,107z"/>
		<path class="st0" d="M101,120.7c-2.9,0-5.9-0.3-8.7-0.8l-27.6,0c-3,0-5.5-2.5-5.5-5.5v-11.7c0-1.3,0.5-2.6,1.4-3.6
			c-0.9-1-1.4-2.3-1.4-3.6V83.8c0-1.3,0.5-2.6,1.4-3.6c-0.9-1-1.4-2.3-1.4-3.6V64.8c0-3,2.5-5.5,5.5-5.5h50.6c3,0,5.5,2.5,5.5,5.5
			v11.7c0,1.9-1,3.7-2.6,4.6c1.3,0.9,2.1,2,2.4,3.2c0.1,0.2,0.1,0.5,0.1,0.7v27.7c0,0.3-0.1,0.5-0.2,0.7
			C119.3,118.4,109.5,120.7,101,120.7z M93.6,116.3c2.3,0.4,4.8,0.6,7.4,0.6c10.1,0,15.8-2.9,16.1-4.4l0-4c-2.1,1.2-5,2.1-8.5,2.6
			l-0.2,0c-0.9,0.2-2,0.3-3.1,0.4l-0.7,0.1c-0.2,0-0.5,0-0.7,0c-0.3,0-0.6,0-0.9,0l-0.5,0c-0.5,0-1,0-1.5,0c-0.5,0-1,0-1.5,0
			l-1.4-0.1l-1.4-0.1c-1.1-0.1-2.1-0.2-3.2-0.4c-3.5-0.5-6.4-1.4-8.5-2.6c0,0-0.1,0-0.1,0l0,4.1l0.1,0.1l0,0c0.6,1,3,2.5,7.9,3.4
			L93.6,116.3z M64.7,101c-0.9,0-1.7,0.8-1.7,1.7v11.7c0,0.9,0.8,1.7,1.7,1.7H83c-0.1-0.1-0.2-0.2-0.4-0.3c-0.1-0.1-0.1-0.2-0.2-0.2
			c-0.1-0.2-0.3-0.3-0.4-0.5c-0.1-0.1-0.2-0.3-0.3-0.4h-0.6V101H64.7z M85.1,104c0.1,0.1,0.1,0.1,0.2,0.2c2,1.9,7.9,3.7,15.7,3.7
			c7.7,0,13.7-1.8,15.6-3.6c0.2-0.2,0.2-0.2,0.3-0.3l0.1-0.2l0.1-0.3c-0.1-0.3,0-0.6,0-0.7l0-3.2c-2.1,1.2-5,2.1-8.5,2.6
			c-1.1,0.2-2.2,0.3-3.3,0.4l-1.4,0.1l-1.5,0.1c-0.5,0-1,0-1.5,0c-0.5,0-1,0-1.5,0l-0.6,0c-0.3,0-0.6,0-0.9,0l-0.6,0l-0.8-0.1
			c-1.1-0.1-2.2-0.2-3.2-0.4c-3.4-0.5-6.2-1.4-8.3-2.4h-0.3l0,3.3c0,0,0,0.2,0,0.4l0.1,0.3L85.1,104z M84.9,93.8c0,0.2,0,0.4,0,0.6
			l0,0.2l0.1,0.2c0,0.1,0.1,0.1,0.1,0.2c0,0,0.1,0.1,0.1,0.2c2,1.9,7.9,3.8,15.7,3.8c7.7,0,13.7-1.8,15.6-3.6
			c0.1-0.2,0.2-0.2,0.3-0.3l0.1-0.1l0.1-0.2l0,0l0-0.2c0-0.2,0-0.5,0-0.6l0-3.2l-0.2,0.1c-0.2,0.1-0.5,0.3-0.8,0.4
			c-0.3,0.2-0.6,0.2-0.8,0.3l-0.2,0.1c-0.3,0.1-0.6,0.2-0.9,0.3c-0.3,0.1-0.6,0.2-0.9,0.3l-0.2,0c-0.4,0.1-0.7,0.2-1,0.3
			c-0.4,0.1-0.7,0.2-1.1,0.3c0,0-0.8,0.2-1.2,0.2l-0.2,0c-0.4,0.1-0.7,0.1-1,0.2l-0.2,0c-0.3,0-0.6,0.1-0.9,0.1l-0.2,0
			c-0.4,0-0.7,0.1-1.1,0.1l-0.2,0l-1.2,0.1l-1.3,0.1c-0.3,0-0.6,0-0.9,0l-1.4,0l-1.3,0c-0.5,0-0.8,0-1.1,0l-1.3-0.1
			c0,0-1.4-0.1-1.5-0.1c-0.3,0-0.7-0.1-1.1-0.1l-0.2,0c-0.3,0-1.2-0.2-1.2-0.2c-0.3-0.1-0.7-0.1-1-0.2c-0.1,0-1.3-0.3-1.3-0.3
			c-0.3-0.1-0.7-0.2-1-0.2c-0.4-0.1-1.2-0.3-1.2-0.3c-0.4-0.1-0.6-0.2-0.9-0.3c-0.3-0.1-0.6-0.2-0.9-0.3l-0.2-0.1
			c-0.3-0.1-0.5-0.2-0.7-0.3c-0.4-0.2-0.6-0.3-0.9-0.4l-0.2-0.1V93.8z M64.7,82c-0.9,0-1.7,0.8-1.7,1.7v11.7c0,0.9,0.8,1.7,1.7,1.7
			h16.5V85.1c0-0.2,0-0.5,0.1-0.7c0.2-0.9,0.7-1.7,1.5-2.4H64.7z M101,81.1c-2.4,0-4.8,0.2-6.9,0.5l-0.4,0.1c-0.5,0.1-1,0.2-1.5,0.3
			c-1.5,0.3-2.9,0.7-4,1.2c-0.4,0.2-0.6,0.3-0.8,0.4c-0.2,0.1-0.3,0.2-0.5,0.3c-1.3,0.7-1.7,1.2-1.8,1.5c-0.1,0.1-0.1,0.1-0.1,0.2
			c0,1.7,6.2,4.6,16,4.6c9.8,0,16.1-2.9,16.1-4.5c0-0.9-2.3-2.5-7.3-3.6c-0.5-0.1-1-0.2-1.5-0.3l-0.3-0.1
			C105.8,81.2,103.4,81.1,101,81.1z M93.5,77.8c2.4-0.4,5-0.6,7.5-0.6s5.1,0.2,7.5,0.6l0.2,0c0.7,0.1,1.4,0.2,2.1,0.4l4.6,0
			c0.9,0,1.7-0.8,1.7-1.7V64.8c0-0.9-0.8-1.7-1.7-1.7H64.7c-0.9,0-1.7,0.8-1.7,1.7v11.7c0,0.9,0.8,1.7,1.7,1.7h26.5l0.1,0
			c0.7-0.2,1.4-0.3,2.1-0.4L93.5,77.8z"/>
	</g>
</g>
</svg>
